# xmcd CD database file
#
# Track frame offsets:
#	150
#	22476
#	36611
#	58043
#	79725
#	101718
#	124252
#	143333
#	163543
#	177126
#	194813
#	218665
#
# Disc length: 3287 seconds
#
# Revision: 0
# Processed by: cddbd v1.5.2PL0 Copyright (c) Steve Scherf et al.
# Submitted via: CDex 1.70beta2
#
DISCID=b10cd50c
DTITLE=Ryan Bingham - Junky Star
DYEAR=2010
DGENRE=Country
TTITLE0=The Poet
TTITLE1=The Wandering
TTITLE2=Strange Feelin' In The Air
TTITLE3=Junky Star
TTITLE4=Depression
TTITLE5=Hallelujah
TTITLE6=Yesterday's Blues
TTITLE7=Direction Of The Wind
TTITLE8=Lay My Head On The Rail
TTITLE9=Hard Worn Trail
TTITLE10=Self-Righteous Wall
TTITLE11=All Choked Up Again
EXTD=YEAR: 2010
EXTT0=
EXTT1=
EXTT2=
EXTT3=
EXTT4=
EXTT5=
EXTT6=
EXTT7=
EXTT8=
EXTT9=
EXTT10=
EXTT11=
PLAYORDER=
